<svg width="800" height="800" viewBox="0 0 1000 1000" xml:space="preserve" xmlns="http://www.w3.org/2000/svg"><path d="M818.596 221.014H181.404c-16.569 0-30 13.431-30 30v93.212h697.192v-93.212c0-16.569-13.431-30-30-30M635.371 295.12h-28c-6.875 0-12.5-5.625-12.5-12.5s5.625-12.5 12.5-12.5h28c6.875 0 12.5 5.625 12.5 12.5s-5.625 12.5-12.5 12.5m83.5 0h-28c-6.875 0-12.5-5.625-12.5-12.5s5.625-12.5 12.5-12.5h28c6.875 0 12.5 5.625 12.5 12.5s-5.625 12.5-12.5 12.5m83.5 0h-28c-6.875 0-12.5-5.625-12.5-12.5s5.625-12.5 12.5-12.5h28c6.875 0 12.5 5.625 12.5 12.5s-5.625 12.5-12.5 12.5m-2.669 270.328q2.161-2.147 2.161-5.392 0-3.053-2.161-5.249t-5.327-2.195h-9.215v14.984h9.215q3.168 0 5.327-2.148m-601.055-40.903q3.108-1.154 5.378-3.264a15.6 15.6 0 0 0 3.585-4.974q1.315-2.865 1.315-6.288 0-3.58-1.315-6.487a14.75 14.75 0 0 0-3.625-4.974q-2.311-2.069-5.417-3.223-3.107-1.154-6.612-1.155h-6.293v31.518h6.293q3.583 0 6.691-1.153m580.466-16.86a20 20 0 0 0 6.363 4.353q3.635 1.578 7.941 1.579 4.305 0 7.989-1.579a20.4 20.4 0 0 0 6.458-4.353q2.774-2.775 4.353-6.506t1.579-7.941-1.626-7.941q-1.628-3.73-4.401-6.506-2.775-2.774-6.506-4.401a19.4 19.4 0 0 0-7.845-1.626q-4.306 0-7.989 1.674-3.684 1.675-6.362 4.497-2.68 2.823-4.21 6.602a20.8 20.8 0 0 0-1.531 7.893q0 4.21 1.531 7.845a20.2 20.2 0 0 0 4.256 6.41" style="fill:#231f20"/><path d="M151.404 748.986c0 16.569 13.431 30 30 30h637.192c16.569 0 30-13.431 30-30v-379.76H151.404zm661.161-73.43q-1.813 3.727-4.711 6.213a19.8 19.8 0 0 1-6.524 3.728 22.5 22.5 0 0 1-7.352 1.243q-4.349 0-8.232-1.553-3.884-1.554-6.783-4.038-2.9-2.486-4.608-5.592-1.709-3.107-1.709-6.213 0-3.002 1.864-4.608 1.864-1.604 4.246-1.605 2.07 0 3.779 1.139 1.708 1.14 2.226 3.728.517 3.004 3.107 4.712 2.588 1.708 6.109 1.708 3.002 0 5.488-1.812 2.485-1.811 2.485-5.54-.001-3.001-1.346-4.919-1.347-1.914-3.469-3.365a35 35 0 0 0-4.608-2.641 38 38 0 0 1-4.66-2.641 34 34 0 0 1-4.246-3.365 27.3 27.3 0 0 1-3.728-4.246 21.4 21.4 0 0 1-2.64-4.97q-.985-2.64-.984-5.643 0-4.244 1.605-7.404 1.605-3.157 4.142-5.281a17.1 17.1 0 0 1 5.695-3.158 20.4 20.4 0 0 1 6.368-1.036q3.106 0 6.265 1.088 3.158 1.087 5.644 3.107a16.4 16.4 0 0 1 4.038 4.815q1.553 2.796 1.553 6.213 0 2.693-1.812 4.608-1.813 1.917-4.401 1.916-2.383 0-4.038-1.346-1.657-1.344-1.967-4.349-.208-1.865-1.968-2.796-1.762-.932-3.417-.932-2.59.001-3.883 1.346-1.295 1.347-1.294 3.21 0 2.383 1.139 3.987 1.138 1.606 2.9 2.796a29 29 0 0 0 3.831 2.174q2.07.985 3.831 2.02a41 41 0 0 1 5.436 3.935 27.3 27.3 0 0 1 4.401 4.763 23 23 0 0 1 2.951 5.54q1.087 2.95 1.087 6.368.003 4.968-1.81 8.696m-38.666-79.329V548.03q0-6.68 6.776-6.681h13.648q3.817 0 7.253 1.479a19.1 19.1 0 0 1 6.013 4.056 19.1 19.1 0 0 1 4.056 6.013 18.2 18.2 0 0 1 1.479 7.254q0 3.915-1.485 7.301a19.17 19.17 0 0 1-10.104 10.021 18.25 18.25 0 0 1-7.277 1.479h-9.098v17.275q0 5.727-5.583 5.727-5.678 0-5.678-5.727m-9.855-114.997q2.392-5.787 6.649-10.19 4.257-4.4 9.998-6.984t12.438-2.584q6.889 0 12.773 2.536t10.237 6.841q4.354 4.306 6.793 10.094 2.44 5.79 2.44 12.294 0 6.602-2.487 12.39-2.489 5.79-6.793 10.094-4.305 4.306-10.094 6.745-5.79 2.44-12.39 2.44-6.602 0-12.438-2.44t-10.142-6.697q-4.305-4.257-6.841-9.998t-2.536-12.342q.001-6.41 2.393-12.199m-530.702 85.018c0-10.098 7.265-18.732 17.215-20.457l11.216-1.945a133.2 133.2 0 0 1 16.859-40.65l-6.569-9.325c-5.816-8.255-4.848-19.497 2.292-26.638l11.113-11.113c7.14-7.14 18.383-8.108 26.638-2.293l9.326 6.57a133.2 133.2 0 0 1 40.65-16.859l1.945-11.216c1.725-9.949 10.359-17.215 20.457-17.215H400.2c10.098 0 18.732 7.265 20.457 17.215l1.946 11.222c20.773 4.796 39.699 14.419 55.529 27.633l-1.58 1.92c-13.04 15.82-22.81 33.99-28.89 53.37-13.39-15.53-33.2-25.36-55.32-25.36-40.31 0-73 32.68-73 73 0 40.31 32.69 73 73 73 22.12 0 41.93-9.83 55.32-25.36 10.89-12.65 17.53-29.07 17.67-47.03v-1.22c.14-32.08 11.56-61.5 30.51-84.5a135 135 0 0 1 17.7-17.83c15.83-13.207 34.756-22.828 55.529-27.624l1.946-11.222c1.725-9.949 10.359-17.215 20.457-17.215h15.716c10.098 0 18.732 7.265 20.457 17.215l1.945 11.216a133.2 133.2 0 0 1 40.65 16.859l9.326-6.57c8.255-5.815 19.498-4.848 26.638 2.293l11.113 11.113c7.14 7.141 8.108 18.383 2.292 26.638l-6.569 9.325a133.2 133.2 0 0 1 16.859 40.65l11.216 1.945c9.95 1.725 17.215 10.359 17.215 20.457v15.716c0 10.098-7.265 18.732-17.215 20.457l-11.217 1.945a133.2 133.2 0 0 1-16.86 40.648l6.571 9.327c5.815 8.255 4.848 19.497-2.292 26.638l-11.113 11.113c-7.14 7.14-18.383 8.108-26.638 2.292l-9.327-6.57a133.2 133.2 0 0 1-40.648 16.86l-1.945 11.217c-1.725 9.949-10.359 17.215-20.457 17.215h-15.716c-10.098 0-18.732-7.265-20.457-17.215l-1.946-11.222c-20.773-4.796-39.7-14.416-55.529-27.624l1.6-1.94c13.03-15.82 22.79-33.99 28.88-53.36 13.38 15.53 33.19 25.36 55.31 25.36 40.31 0 72.99-32.69 72.99-73 0-40.32-32.68-73-72.99-73-22.12 0-41.93 9.83-55.31 25.36-10.9 12.64-17.54 29.06-17.68 47.03v1.22c-.14 32.08-11.56 61.5-30.5 84.5a135 135 0 0 1-17.71 17.82c-15.829 13.214-34.755 22.837-55.529 27.633l-1.946 11.222c-1.725 9.949-10.359 17.215-20.457 17.215h-15.716c-10.098 0-18.732-7.265-20.457-17.215l-1.945-11.217a133.2 133.2 0 0 1-40.648-16.86l-9.328 6.57c-8.255 5.816-19.498 4.848-26.638-2.292l-11.113-11.113c-7.14-7.141-8.108-18.383-2.292-26.638l6.571-9.327a133.2 133.2 0 0 1-16.86-40.648l-11.217-1.945c-9.95-1.725-17.215-10.359-17.215-20.457v-15.714zm-57.047-76.831q0-1.984 1.31-3.334 1.309-1.35 3.374-1.35h11.909q5.477 0 10.162 1.985 4.683 1.986 8.137 5.399 3.453 3.414 5.398 8.019t1.945 9.844q0 5.716-2.144 10.361t-5.795 7.939q-3.653 3.295-8.495 5.081-4.844 1.786-10.241 1.786h-10.877q-2.065 0-3.374-1.35-1.31-1.349-1.31-3.334zm31.121 79.163q1.983 0 3.374 1.339 1.388 1.339 1.389 3.307 0 1.81-1.389 3.306t-3.374 1.496h-16.593v13.338h17.704q1.905 0 3.255 1.378t1.35 3.424q0 1.97-1.35 3.307-1.35 1.339-3.255 1.338H186.1q-2.047 0-3.346-1.35-1.299-1.348-1.299-3.334v-41.045q0-1.984 1.299-3.335t3.346-1.35h22.507q1.983 0 3.374 1.35 1.388 1.351 1.389 3.335 0 1.985-1.389 3.374t-3.374 1.389h-17.784v8.733zm-31.399 45.876q1.39-1.388 3.374-1.389 1.35 0 2.54.754 1.191.755 1.905 2.342l13.417 31.359 13.814-31.439q.714-1.587 1.945-2.302 1.23-.715 2.58-.715 1.745.001 3.176 1.151 1.43 1.152 1.429 3.136a8 8 0 0 0-.238 1.112q-.08.557-.238 1.191l-17.783 40.648a6.4 6.4 0 0 1-1.747 2.263q-1.113.913-2.938.913-1.667 0-2.739-.913-1.072-.912-1.707-2.342l-17.466-39.854a5.4 5.4 0 0 1-.715-2.699q.002-1.827 1.391-3.216" style="fill:#231f20"/></svg>